<?xml version="1.0" standalone="no"?>
<!DOCTYPE svg PUBLIC "-//W3C//DTD SVG 20010904//EN"
 "http://www.w3.org/TR/2001/REC-SVG-20010904/DTD/svg10.dtd">
<svg version="1.0" xmlns="http://www.w3.org/2000/svg"
 width="500.000000pt" height="500.000000pt" viewBox="0 0 500.000000 500.000000"
 preserveAspectRatio="xMidYMid meet">

<g transform="translate(0.000000,500.000000) scale(0.100000,-0.100000)"
fill="#000000" stroke="none">
<path d="M1702 2448 c6 -18 28 -21 28 -4 0 9 -7 16 -16 16 -9 0 -14 -5 -12
-12z"/>
<path d="M1900 2426 c0 -34 0 -34 -40 -29 -33 5 -45 2 -65 -17 -63 -59 9 -151
86 -110 13 7 19 7 19 0 0 -5 7 -10 15 -10 12 0 15 18 15 100 0 82 -3 100 -15
100 -10 0 -15 -10 -15 -34z m-19 -56 c12 -7 19 -21 19 -40 0 -51 -67 -69 -96
-25 -15 23 -15 27 0 50 17 26 45 32 77 15z"/>
<path d="M3560 2355 c0 -78 3 -95 15 -95 8 0 15 5 15 10 0 7 6 7 19 0 30 -15
56 -12 85 11 66 52 -9 149 -85 109 -17 -10 -19 -7 -19 25 0 24 -4 35 -15 35
-12 0 -15 -17 -15 -95z m122 8 c10 -9 18 -22 18 -30 0 -20 -37 -53 -60 -53
-21 0 -60 33 -60 50 0 18 40 50 62 50 12 0 30 -7 40 -17z"/>
<path d="M3760 2355 c0 -57 4 -95 10 -95 6 0 10 38 10 95 0 57 -4 95 -10 95
-6 0 -10 -38 -10 -95z"/>
<path d="M1523 2367 c-17 -40 -35 -80 -38 -90 -11 -27 14 -20 27 8 10 22 18
25 60 25 42 0 50 -3 60 -25 6 -14 17 -25 24 -25 15 0 13 7 -35 113 -40 90 -56
89 -98 -6z m87 -29 c0 -5 -16 -8 -35 -8 -39 0 -42 7 -19 52 l17 32 18 -35 c10
-19 18 -37 19 -41z"/>
<path d="M2550 2350 l0 -90 70 0 c56 0 70 3 70 15 0 12 -13 15 -55 15 -52 0
-55 1 -55 25 0 23 3 25 50 25 38 0 50 4 50 15 0 11 -12 15 -50 15 -47 0 -50 2
-50 25 0 24 3 25 55 25 30 0 55 5 55 10 0 6 -30 10 -70 10 l-70 0 0 -90z"/>
<path d="M1710 2330 c0 -40 4 -70 10 -70 6 0 10 30 10 70 0 40 -4 70 -10 70
-6 0 -10 -30 -10 -70z"/>
<path d="M1982 2377 c-46 -49 -10 -117 62 -117 42 0 86 35 86 70 0 62 -104 94
-148 47z m96 -13 c28 -19 28 -49 0 -68 -29 -21 -41 -20 -68 2 -18 14 -21 25
-17 45 6 23 20 32 52 36 6 0 21 -6 33 -15z"/>
<path d="M2170 2330 c0 -40 4 -70 10 -70 6 0 10 20 10 43 0 30 6 49 18 60 41
37 72 13 72 -55 0 -36 4 -48 15 -48 21 0 20 88 -1 118 -17 25 -62 30 -83 10
-11 -10 -14 -10 -18 0 -12 32 -23 5 -23 -58z"/>
<path d="M2366 2387 c-31 -23 -16 -50 37 -65 61 -17 57 -38 -7 -35 -45 1 -61
-9 -30 -21 45 -17 104 2 104 35 0 20 -21 33 -73 44 -46 9 -26 30 27 28 48 -1
62 10 24 21 -36 9 -63 7 -82 -7z"/>
<path d="M2740 2330 c0 -54 3 -70 14 -70 11 0 16 15 18 51 6 96 70 96 76 0 2
-36 7 -51 18 -51 23 0 19 102 -4 123 -22 20 -63 22 -81 5 -11 -10 -14 -10 -18
0 -12 32 -23 5 -23 -58z"/>
<path d="M2931 2386 c-23 -28 -9 -50 42 -65 26 -8 47 -18 47 -23 0 -16 -33
-21 -61 -11 -31 12 -53 -2 -28 -18 36 -23 119 -1 119 31 0 17 -30 38 -65 44
-51 10 -39 32 15 28 30 -2 41 1 38 10 -7 19 -92 22 -107 4z"/>
<path d="M3085 2375 c-59 -58 4 -130 95 -110 46 10 36 25 -13 19 -35 -5 -45
-2 -61 15 l-19 21 66 0 c60 0 67 2 67 20 0 57 -90 81 -135 35z m96 -5 c33 -18
21 -30 -31 -30 -37 0 -50 4 -50 14 0 23 50 32 81 16z"/>
<path d="M3260 2330 c0 -56 3 -70 15 -70 11 0 15 12 15 50 0 39 4 51 20 60 12
6 30 8 40 5 17 -5 20 -15 20 -61 0 -40 4 -54 14 -54 11 0 16 15 18 52 3 47 6
54 31 62 37 13 49 -1 55 -63 6 -68 22 -65 22 3 0 60 -16 86 -54 86 -12 0 -31
-6 -41 -14 -16 -11 -21 -11 -33 0 -16 17 -46 18 -73 4 -13 -7 -19 -7 -19 0 0
5 -7 10 -15 10 -12 0 -15 -14 -15 -70z"/>
<path d="M3846 2379 c-17 -13 -26 -30 -26 -49 0 -56 88 -92 136 -55 17 14 16
14 -23 9 -33 -5 -49 -2 -70 12 l-28 19 69 5 c79 6 90 17 52 55 -31 31 -74 33
-110 4z m92 -11 c22 -22 13 -28 -38 -28 -27 0 -50 4 -50 8 0 16 25 32 50 32
14 0 31 -5 38 -12z"/>
</g>
</svg>
